<svg width="453" height="728" viewBox="0 0 453 728" fill="none" xmlns="http://www.w3.org/2000/svg">
    <path d="M176.992 288.148C177.987 288.205 178.982 288.261 180.007 288.319C183.205 288.504 186.4 288.715 189.596 288.927C191.677 289.052 193.759 289.176 195.841 289.297C199.996 289.543 204.151 289.797 208.306 290.06C222.981 290.987 237.622 291.9 252.333 291.889C253.68 291.889 255.026 291.889 256.413 291.889C267.647 291.811 278.403 290.739 289.441 288.585C292.361 288.091 292.361 288.091 297.07 288.016C300.488 290.598 300.488 290.598 303.146 294.092C304.049 295.119 304.951 296.147 305.881 297.206C311.185 304.594 310.06 315.721 309.223 324.473C308.051 329.557 306.446 334.278 304.362 339.056C303.793 340.382 303.793 340.382 303.213 341.734C301.931 343.917 301.931 343.917 298.285 346.348C290.931 347.22 285.124 345.841 278.158 343.537C262.296 338.365 247.906 336.298 231.218 336.17C229.097 336.145 229.097 336.145 226.933 336.119C214.534 336.186 203.406 338.856 191.571 342.322C185.905 343.865 181.399 344.725 175.545 343.917C169.437 339.109 167.096 333.309 164.303 326.296C163.877 325.273 163.451 324.25 163.012 323.196C159.792 315.331 157.278 307.587 158.531 298.953C160.734 294.927 160.734 294.927 163.392 291.661C164.069 290.654 164.069 290.654 164.759 289.626C168.504 286.979 172.614 287.834 176.992 288.148Z"
          fill="#FFCC01"/>
    <path d="M410.578 178.244C411.219 178.776 411.859 179.309 412.519 179.858C385.614 224.573 347.971 267.631 295.913 281.214C293.067 281.915 290.216 282.55 287.348 283.154C286.268 283.382 285.187 283.61 284.074 283.845C273.883 285.776 263.807 286.012 253.473 285.965C252.553 285.964 251.634 285.963 250.687 285.963C227.945 285.919 205.311 284.213 182.639 282.588C169.348 281.649 156.051 281.116 142.733 280.724C175.974 240.241 236.041 210.398 287.348 202.948C289.711 202.855 292.076 202.816 294.44 202.829C295.733 202.833 297.025 202.837 298.357 202.841C300.352 202.856 300.352 202.856 302.387 202.872C303.745 202.877 305.103 202.883 306.503 202.888C309.84 202.902 313.177 202.922 316.514 202.948C314.035 202.157 311.553 201.373 309.071 200.593C307.689 200.156 306.307 199.719 304.884 199.269C270.529 189.526 233.044 206.915 203.451 223.208C188.99 231.362 174.783 239.929 160.961 249.127C160.961 244.941 161.633 244.102 164.033 240.81C164.689 239.904 165.346 238.997 166.022 238.062C166.734 237.102 167.445 236.141 168.177 235.152C168.901 234.165 169.624 233.178 170.37 232.161C179.854 219.303 190.085 207.257 201.065 195.656C202.143 194.512 203.22 193.369 204.331 192.191C261.04 133.668 346.074 127.949 410.578 178.244Z"
          fill="#73A335"/>
    <path d="M220.509 0C225.472 1.93578 228.625 5.48682 232.13 9.34228C233.086 10.3922 233.086 10.3922 234.061 11.4633C259.672 40.093 277.934 75.3512 277.778 114.386C277.783 115.572 277.787 116.758 277.792 117.979C277.791 119.128 277.789 120.276 277.787 121.459C277.786 122.493 277.785 123.527 277.783 124.593C277.615 127.808 277.379 130.599 276.411 133.678C274.481 134.975 274.481 134.975 271.968 135.748C271.035 136.056 270.102 136.365 269.141 136.682C268.131 136.994 267.121 137.306 266.081 137.628C255.672 141.118 246.306 145.587 236.725 150.91C232.662 153.122 232.662 153.122 229.016 154.337C229.005 153.573 228.993 152.809 228.981 152.022C228.591 131.104 226.617 115.465 215.648 97.2204C215.897 97.999 216.146 98.7776 216.403 99.5797C216.73 100.631 217.058 101.682 217.395 102.765C217.719 103.794 218.044 104.823 218.378 105.884C221.605 118.176 220.832 131.029 220.574 143.631C220.536 145.662 220.512 147.694 220.52 149.725C220.516 156.741 219.698 161.086 214.87 166.329C211.532 169.307 207.991 171.976 204.387 174.622C195.423 181.387 187.542 189.451 180.406 198.087C179.456 199.2 178.507 200.314 177.529 201.462C170.797 209.411 164.533 217.521 158.531 226.038C156.407 222.851 155.603 221.178 154.705 217.616C154.343 216.186 154.343 216.186 153.973 214.726C153.723 213.697 153.472 212.667 153.214 211.606C152.951 210.534 152.687 209.461 152.415 208.356C149.559 196.505 147.251 184.574 145.163 172.566C144.886 171.051 144.609 169.537 144.323 167.976C137.406 124.972 148.576 87.4265 173.556 52.5073C179.497 44.3774 185.856 36.6756 192.558 29.1661C193.101 28.5544 193.645 27.9427 194.204 27.3124C202.63 17.8615 211.488 8.87915 220.509 0Z"
          fill="#669966"/>
    <path d="M186.482 617.35C187.986 617.876 189.49 618.402 191.039 618.945C209.297 625.303 234.52 628.543 253.321 623.426C258.741 622.968 263.768 622.87 268.967 624.565C277.994 633.327 281.085 650.828 285.085 662.436C285.985 665.035 286.895 667.631 287.814 670.224C289.156 674.006 290.467 677.797 291.772 681.592C292.182 682.732 292.592 683.872 293.015 685.046C295.757 693.171 297.084 701.135 295.855 709.709C293.175 712.925 292.056 713.983 288.563 715.785C287.816 716.215 287.069 716.644 286.299 717.086C270.298 725.744 252.855 727.166 234.94 727.026C233.399 727.018 231.858 727.01 230.27 727.002C204.755 726.723 165.605 725.721 145.163 708.494C141.182 704.015 139.413 700.352 139.765 694.256C142.352 680.877 150.735 667.67 156.708 655.478C157.625 653.599 158.541 651.719 159.457 649.839C161.601 645.439 163.756 641.044 165.916 636.652C166.928 634.588 167.93 632.52 168.932 630.451C169.462 629.367 169.991 628.283 170.536 627.167C170.973 626.266 171.409 625.366 171.859 624.438C175.393 618.167 179.558 616.418 186.482 617.35Z"
          fill="#FFCC01"/>
    <path d="M94.958 543.903C96.2433 543.867 96.2433 543.867 97.5546 543.831C102.83 545.034 105.703 548.452 108.653 552.799C109.397 554.099 110.142 555.399 110.908 556.739C122.07 575.561 136.923 589.963 154.7 602.43C161.924 607.648 161.924 607.648 162.685 611.244C162.659 618.369 161.13 623.381 157.847 629.654C156.945 631.47 156.043 633.287 155.142 635.104C154.687 636.002 154.232 636.901 153.764 637.826C151.85 641.647 150.067 645.521 148.277 649.402C147.583 650.882 146.888 652.361 146.193 653.841C144.522 657.411 142.898 661 141.285 664.597C130.816 687.693 130.816 687.693 121.466 693.303C110.74 695.448 101.72 692.456 92.7363 686.534C88.5929 683.499 84.6529 680.239 80.7547 676.897C80.0865 676.326 79.4184 675.755 78.73 675.166C54.9459 654.575 25.7812 620.343 21.9762 588.041C21.7457 582.496 21.9897 578.308 24.0934 573.145C33.7789 563.459 47.0145 559.556 59.6396 555.144C61.4344 554.506 63.2288 553.868 65.0228 553.228C68.3283 552.05 71.6366 550.881 74.9472 549.717C78.2464 548.555 81.5179 547.332 84.7858 546.085C88.4948 544.717 91.0705 543.91 94.958 543.903Z"
          fill="#FFCC01"/>
    <path d="M360.263 566.309C364.027 567.567 367.524 569.259 371.077 571.018C372.091 571.508 373.105 571.997 374.15 572.501C376.289 573.539 378.423 574.586 380.554 575.64C383.779 577.231 387.02 578.786 390.265 580.337C416.499 593.063 416.499 593.063 421.026 603.982C422.924 615.368 416.099 625.724 409.761 634.772C402.54 644.61 394.22 653.519 385.784 662.314C385.224 662.906 384.665 663.499 384.089 664.109C375.611 673.072 366.563 680.608 356.618 687.834C355.711 688.521 354.804 689.207 353.869 689.914C342.449 698.136 328.995 704.668 314.753 704.407C310.648 703.382 308.583 701.733 305.577 698.772C297.419 685.011 293.567 667.984 288.655 652.891C287.475 649.331 286.247 645.794 284.984 642.262C284.635 641.274 284.287 640.286 283.928 639.268C283.295 637.484 282.649 635.704 281.986 633.93C280.045 628.378 279.677 624.25 281.272 618.565C284.85 614.737 289.977 613.059 294.716 610.97C314.504 601.958 331.834 588.682 345.604 571.778C350.167 566.247 353.292 565.647 360.263 566.309Z"
          fill="#FFCC01"/>
    <path d="M47.7939 414.426C51.6791 416.158 55.4698 418.016 59.2599 419.947C60.6017 420.612 61.9435 421.278 63.326 421.964C87.9264 434.274 87.9264 434.274 91.692 439.922C92.4785 446.122 91.7633 452.227 90.4862 458.308C89.1637 465.358 88.7957 472.179 88.8057 479.342C88.8051 480.592 88.8044 481.842 88.8037 483.129C88.9922 496.518 91.0951 509.832 95.3377 522.56C95.8091 532.459 95.8091 532.459 92.9072 537.143C90.6645 538.537 90.6645 538.537 87.975 539.621C86.9945 540.022 86.0141 540.424 85.0039 540.837C84.0027 541.222 83.0015 541.607 81.9699 542.004C81.0643 542.354 80.1586 542.705 79.2255 543.066C76.4779 544.105 73.7201 545.11 70.9567 546.105C68.9326 546.84 66.9087 547.576 64.8852 548.313C63.8812 548.678 62.8772 549.043 61.8429 549.419C59.0337 550.454 56.2374 551.517 53.4447 552.595C25.5525 563.357 25.5525 563.357 14.8413 559.169C8.73482 555.776 6.54363 552.185 4.1936 545.65C3.4036 542.448 2.72502 539.361 2.17609 536.122C2.02305 535.229 1.87001 534.336 1.71234 533.416C0.138635 523.5 -0.0690264 513.668 0.0161632 503.647C0.0202631 502.703 0.024363 501.759 0.0285872 500.787C0.199572 473.433 2.13506 441.204 22.4224 420.478C30.2628 413.367 37.5511 410.795 47.7939 414.426Z"
          fill="#FFCC01"/>
    <path d="M436.065 441.214C445.776 448.381 448.79 456.583 450.963 468.308C452.388 478.608 452.019 489.129 451.908 499.503C451.863 503.796 451.858 508.087 451.858 512.38C451.7 564.156 451.7 564.156 437.584 579.435C430.754 584.475 423.042 584.538 414.95 583.323C401.89 579.544 389.47 573.216 377.277 567.296C376.253 566.806 375.229 566.316 374.175 565.811C368.787 563.11 364.459 560.839 361.479 555.372C360.558 548.577 362.483 543.734 365.428 537.751C369.754 528.431 372.658 519.261 374.846 509.192C375.069 508.268 375.291 507.343 375.521 506.391C377.942 495.221 377.356 484.018 376.952 472.671C376.864 470.025 376.814 467.382 376.769 464.736C376.722 463.179 376.674 461.622 376.626 460.018C377.468 454.462 379.272 452.236 383.353 448.429C386.935 446.821 386.935 446.821 390.877 445.856C392.327 445.496 393.777 445.136 395.271 444.765C397.53 444.248 397.53 444.248 399.835 443.72C401.308 443.347 402.782 442.975 404.3 442.59C414.719 440.088 425.614 437.924 436.065 441.214Z"
          fill="#FFCC01"/>
    <path d="M137.492 304.421C146.563 310.621 152.498 318.387 157.316 328.119C157.883 329.112 158.45 330.105 159.034 331.129C162.311 337.042 164.072 341.875 164.199 348.65C162.337 354.554 156.603 357.931 151.659 361.211C129.52 375.937 113.675 396.265 101.946 419.899C100.199 422.909 100.199 422.909 96.553 425.339C87.9795 426.676 81.7015 422.715 74.2986 418.731C73.0519 418.069 71.8053 417.407 70.5208 416.725C58.5266 410.187 46.4018 402.488 41.8665 388.882C40.3481 375.845 44.5787 367.416 52.424 357.285C66.5202 340.777 82.0487 325.522 100.199 313.536C101.03 312.985 101.86 312.435 102.716 311.868C114.18 304.442 123.875 298.882 137.492 304.421Z"
          fill="#FFCC01"/>
    <path d="M346.896 307.46C378.237 318.653 406.719 362.434 420.418 391.312C428.075 409.004 428.075 409.004 425.052 418.143C422.369 424.179 419.638 426.928 413.735 430.2C409.667 431.601 405.549 432.599 401.354 433.542C399.651 433.931 399.651 433.931 397.913 434.327C380.705 438.081 380.705 438.081 374.846 436.277C369.58 432.038 367.257 427.407 364.897 421.238C357.938 404.374 347.408 390.904 334.743 377.944C333.996 377.136 333.249 376.328 332.479 375.495C327.454 370.17 321.786 366.119 315.731 362.018C311.239 358.405 310.612 356.243 309.897 350.53C310.088 343.517 313.476 337.783 316.666 331.689C317.243 330.529 317.819 329.369 318.413 328.174C324.924 315.425 331.238 305.083 346.896 307.46Z"
          fill="#FFCC01"/>
    <path d="M333.528 404.68C338.15 408.43 341.651 412.014 342.614 418.005C341.855 422.838 340.122 424.39 336.566 427.694C334.881 429.28 334.881 429.28 333.162 430.898C329.826 433.897 326.479 436.874 323.07 439.79C318.98 443.393 315.02 447.13 311.046 450.86C305.744 455.833 300.418 460.742 294.905 465.481C290.897 469.037 287.003 472.714 283.095 476.38C277.793 481.353 272.467 486.262 266.955 491.001C262.946 494.558 259.052 498.235 255.144 501.9C247.064 509.473 238.964 516.952 230.231 523.775C228.976 521.458 227.89 519.209 227.126 516.683C224.974 509.748 221.649 505.952 215.648 501.9C214.043 501.06 212.426 500.241 210.787 499.47C214.367 494.607 218.381 491.002 223.167 487.393C229.884 482.227 236.471 476.931 242.991 471.519C249.206 466.37 255.458 461.286 261.828 456.328C269.214 450.579 276.444 444.651 283.657 438.686C289.029 434.245 294.431 429.85 299.89 425.515C302.629 423.323 305.354 421.115 308.074 418.898C308.951 418.183 309.828 417.468 310.732 416.731C312.481 415.304 314.229 413.876 315.976 412.446C316.778 411.791 317.581 411.137 318.408 410.462C319.126 409.875 319.845 409.287 320.585 408.682C325.196 405.069 327.67 403.553 333.528 404.68Z"
          fill="#FFCC03"/>
    <path d="M83.5649 199.53C96.6659 202.416 106.22 218.614 113.267 229.256C121.3 243.133 131.003 262.956 132.099 279.129C129.794 285.237 125.218 287.42 119.643 290.446C118.813 290.919 117.982 291.392 117.127 291.88C113.293 293.51 110.231 292.596 106.275 291.661C102.652 288.903 101.813 286.117 100.711 281.783C100.22 279.912 100.22 279.912 99.7178 278.004C99.3752 276.671 99.0326 275.338 98.6797 273.964C93.6341 255.293 87.9468 238.267 77.3519 221.972C74.2511 217.087 72.5547 213.79 73.4631 207.809C76.3941 203.013 78.0459 200.884 83.5649 199.53Z"
          fill="#FFCC03"/>
    <path d="M174.329 464.227C176.485 465.747 176.485 465.747 178.431 467.873C179.161 468.658 179.891 469.443 180.643 470.252C181.367 471.071 182.09 471.89 182.836 472.734C183.809 473.832 183.809 473.832 184.801 474.951C186.162 476.504 187.515 478.065 188.86 479.632C190.826 481.868 192.819 484.056 194.851 486.23C195.462 486.886 196.074 487.542 196.704 488.218C197.927 489.528 199.156 490.834 200.39 492.134C204.711 496.77 204.711 496.77 204.711 499.47C204.006 499.575 203.301 499.68 202.575 499.788C195.661 501.032 191.474 502.752 186.482 507.977C184.635 510.749 183.139 513.506 181.621 516.483C177.053 510.968 173.155 505.126 169.229 499.152C166.939 495.672 164.643 492.228 162.196 488.855C159.249 484.786 157.445 481.742 156.176 476.836C157.731 471.24 160.73 469.213 165.267 465.789C168.69 463.999 170.524 463.629 174.329 464.227Z"
          fill="#FFCC04"/>
    <path d="M212.002 506.761C216.438 509.295 220.295 512.697 221.724 517.699C222.265 524.409 222.172 529.084 218.079 534.712C212.399 538.831 206.886 540.616 199.85 539.573C194.046 536.614 190.612 533.251 187.697 527.421C186.852 521.505 187.005 518.089 190.28 513.066C196.28 505.741 203.075 504.126 212.002 506.761Z"
          fill="#FFCD05"/>
</svg>
