<svg width="557" height="543" viewBox="0 0 557 543" fill="none" xmlns="http://www.w3.org/2000/svg">
<path d="M51.3335 38L58.1329 40.2664C92.0139 51.5602 108.954 57.2069 118.644 70.6506C128.333 84.094 128.333 101.951 128.333 137.665V204.833C128.333 277.429 128.334 313.727 150.886 336.28C173.439 358.833 209.737 358.833 282.333 358.833H487.667" stroke="black" stroke-width="50" stroke-linecap="round"/>
<path d="M192.5 423C213.763 423 231 440.238 231 461.5C231 482.762 213.763 500 192.5 500C171.237 500 154 482.762 154 461.5C154 440.238 171.237 423 192.5 423Z" stroke="black" stroke-width="50"/>
<path d="M423.5 423.003C444.762 423.003 462 440.238 462 461.503C462 482.765 444.762 500.003 423.5 500.003C402.238 500.003 385 482.765 385 461.503C385 440.238 402.238 423.003 423.5 423.003Z" stroke="black" stroke-width="50"/>
<path d="M128.333 115H422.227C474.972 115 501.342 115 512.756 132.306C524.167 149.612 513.777 173.852 493 222.333L482 248C472.3 270.632 467.449 281.949 457.806 288.309C448.163 294.667 435.851 294.667 411.226 294.667H128.333" stroke="black" stroke-width="50"/>
</svg>
