<svg width="23" height="23" viewBox="0 0 23 23" fill="none" xmlns="http://www.w3.org/2000/svg">
    <path d="M13.6997 3.19996C13.6997 2.49989 13.6997 2.14985 13.836 1.88247C13.9558 1.64726 14.147 1.45604 14.3822 1.33619C14.6496 1.19995 14.9996 1.19995 15.6997 1.19995H19.1997C19.8998 1.19995 20.2498 1.19995 20.5172 1.33619C20.7525 1.45604 20.9436 1.64726 21.0635 1.88247C21.1997 2.14985 21.1997 2.49989 21.1997 3.19996V6.69996C21.1997 7.40003 21.1997 7.75007 21.0635 8.01745C20.9436 8.25266 20.7525 8.44388 20.5172 8.56373C20.2498 8.69997 19.8998 8.69997 19.1997 8.69997H15.6997C14.9996 8.69997 14.6496 8.69997 14.3822 8.56373C14.147 8.44388 13.9558 8.25266 13.836 8.01745C13.6997 7.75007 13.6997 7.40003 13.6997 6.69996V3.19996Z"
          stroke="black" stroke-width="2.4" stroke-linecap="round" stroke-linejoin="round"/>
    <path d="M1.2002 3.19996C1.2002 2.49989 1.2002 2.14985 1.33643 1.88247C1.45628 1.64726 1.64751 1.45604 1.88271 1.33619C2.1501 1.19995 2.50014 1.19995 3.2002 1.19995H6.70021C7.40027 1.19995 7.75031 1.19995 8.0177 1.33619C8.2529 1.45604 8.44413 1.64726 8.56398 1.88247C8.70021 2.14985 8.70021 2.49989 8.70021 3.19996V6.69996C8.70021 7.40003 8.70021 7.75007 8.56398 8.01745C8.44413 8.25266 8.2529 8.44388 8.0177 8.56373C7.75031 8.69997 7.40027 8.69997 6.70021 8.69997H3.2002C2.50014 8.69997 2.1501 8.69997 1.88271 8.56373C1.64751 8.44388 1.45628 8.25266 1.33643 8.01745C1.2002 7.75007 1.2002 7.40003 1.2002 6.69996V3.19996Z"
          stroke="black" stroke-width="2.4" stroke-linecap="round" stroke-linejoin="round"/>
    <path d="M1.2002 15.7C1.2002 14.9998 1.2002 14.6498 1.33643 14.3825C1.45628 14.1472 1.64751 13.9561 1.88271 13.8362C2.1501 13.7 2.50014 13.7 3.2002 13.7H6.70021C7.40027 13.7 7.75031 13.7 8.0177 13.8362C8.2529 13.9561 8.44413 14.1472 8.56398 14.3825C8.70021 14.6498 8.70021 14.9998 8.70021 15.7V19.2C8.70021 19.9001 8.70021 20.2501 8.56398 20.5175C8.44413 20.7527 8.2529 20.9438 8.0177 21.0637C7.75031 21.2 7.40027 21.2 6.70021 21.2H3.2002C2.50014 21.2 2.1501 21.2 1.88271 21.0637C1.64751 20.9438 1.45628 20.7527 1.33643 20.5175C1.2002 20.2501 1.2002 19.9001 1.2002 19.2V15.7Z"
          stroke="black" stroke-width="2.4" stroke-linecap="round" stroke-linejoin="round"/>
    <path d="M13.6997 15.7C13.6997 14.9998 13.6997 14.6498 13.836 14.3825C13.9558 14.1472 14.147 13.9561 14.3822 13.8362C14.6496 13.7 14.9996 13.7 15.6997 13.7H19.1997C19.8998 13.7 20.2498 13.7 20.5172 13.8362C20.7525 13.9561 20.9436 14.1472 21.0635 14.3825C21.1997 14.6498 21.1997 14.9998 21.1997 15.7V19.2C21.1997 19.9001 21.1997 20.2501 21.0635 20.5175C20.9436 20.7527 20.7525 20.9438 20.5172 21.0637C20.2498 21.2 19.8998 21.2 19.1997 21.2H15.6997C14.9996 21.2 14.6496 21.2 14.3822 21.0637C14.147 20.9438 13.9558 20.7527 13.836 20.5175C13.6997 20.2501 13.6997 19.9001 13.6997 19.2V15.7Z"
          stroke="black" stroke-width="2.4" stroke-linecap="round" stroke-linejoin="round"/>
</svg>
