<svg width="24" height="20" viewBox="0 0 24 20" fill="none" xmlns="http://www.w3.org/2000/svg">
    <path d="M0.550944 6.57917C0.00536182 6.92759 -0.16358 7.66704 0.173576 8.23088C0.510748 8.79456 1.22636 8.96912 1.77192 8.6208L0.550944 6.57917ZM4.86865 6.64317C5.41423 6.29475 5.58318 5.55528 5.24602 4.99152C4.90885 4.42775 4.19324 4.25317 3.64767 4.60157L4.86865 6.64317ZM5.41944 5.62237C5.41944 4.95963 4.89951 4.42237 4.25816 4.42237C3.61682 4.42237 3.09689 4.95963 3.09689 5.62237H5.41944ZM8.90326 20C9.54459 20 10.0645 19.4627 10.0645 18.8C10.0645 18.1373 9.54459 17.6 8.90326 17.6V20ZM3.64767 4.60157C3.10215 4.95007 2.93315 5.68967 3.2704 6.25338C3.60765 6.81709 4.32313 6.99167 4.86865 6.64317L3.64767 4.60157ZM10.7025 1.50557L10.1992 0.424068C10.1624 0.442372 10.1266 0.46266 10.0918 0.484868L10.7025 1.50557ZM13.2975 1.50557L13.9082 0.484868C13.8734 0.46266 13.8376 0.442372 13.8007 0.424068L13.2975 1.50557ZM19.1311 6.64307C19.6766 6.99157 20.3923 6.81709 20.7295 6.25338C21.0667 5.68967 20.898 4.95016 20.3525 4.60167L19.1311 6.64307ZM7.74198 18.8C7.74198 19.4627 8.26193 20 8.90326 20C9.54459 20 10.0645 19.4627 10.0645 18.8H7.74198ZM13.9354 18.8C13.9354 19.4627 14.4554 20 15.0967 20C15.7381 20 16.258 19.4627 16.258 18.8H13.9354ZM8.90326 17.6C8.26193 17.6 7.74198 18.1373 7.74198 18.8C7.74198 19.4627 8.26193 20 8.90326 20V17.6ZM15.0967 20C15.7381 20 16.258 19.4627 16.258 18.8C16.258 18.1373 15.7381 17.6 15.0967 17.6V20ZM15.0967 17.6C14.4554 17.6 13.9354 18.1373 13.9354 18.8C13.9354 19.4627 14.4554 20 15.0967 20V17.6ZM20.9031 5.62237C20.9031 4.95963 20.3831 4.42237 19.7418 4.42237C19.1005 4.42237 18.5805 4.95963 18.5805 5.62237H20.9031ZM20.3525 4.60167C19.8068 4.25327 19.0912 4.42775 18.754 4.99152C18.4167 5.55528 18.5857 6.29466 19.1311 6.64307L20.3525 4.60167ZM22.228 8.6208C22.7737 8.96912 23.4892 8.79456 23.8264 8.23088C24.1636 7.66704 23.9946 6.92759 23.4491 6.57917L22.228 8.6208ZM1.77192 8.6208L4.86865 6.64317L3.64767 4.60157L0.550944 6.57917L1.77192 8.6208ZM3.09689 5.62237V16.4H5.41944V5.62237H3.09689ZM3.09689 16.4C3.09689 17.3882 3.33961 18.3978 4.1539 19.1139C4.92201 19.7894 5.97721 20 7.12264 20V17.6C6.17778 17.6 5.80074 17.4107 5.65919 17.2861C5.56381 17.2022 5.41944 17.0118 5.41944 16.4H3.09689ZM7.12264 20H8.90326V17.6H7.12264V20ZM4.86865 6.64317L11.3131 2.52628L10.0918 0.484868L3.64767 4.60157L4.86865 6.64317ZM11.2057 2.58708C11.7077 2.33765 12.2923 2.33765 12.7943 2.58708L13.8007 0.424068C12.6625 -0.141356 11.3374 -0.141356 10.1992 0.424068L11.2057 2.58708ZM12.6868 2.52628L19.1311 6.64307L20.3525 4.60167L13.9082 0.484868L12.6868 2.52628ZM10.0645 18.8V17.2H7.74198V18.8H10.0645ZM10.0645 17.2C10.0645 16.0954 10.931 15.2 12 15.2V12.8C9.64833 12.8 7.74198 14.7699 7.74198 17.2H10.0645ZM12 15.2C13.069 15.2 13.9354 16.0954 13.9354 17.2H16.258C16.258 14.7699 14.3516 12.8 12 12.8V15.2ZM13.9354 17.2V18.8H16.258V17.2H13.9354ZM8.90326 20H15.0967V17.6H8.90326V20ZM15.0967 20H16.8773V17.6H15.0967V20ZM16.8773 20C18.0228 20 19.078 19.7894 19.846 19.1139C20.6603 18.3978 20.9031 17.3882 20.9031 16.4H18.5805C18.5805 17.0118 18.4362 17.2022 18.3409 17.2861C18.1992 17.4107 17.8222 17.6 16.8773 17.6V20ZM20.9031 16.4V5.62237H18.5805V16.4H20.9031ZM19.1311 6.64307L22.228 8.6208L23.4491 6.57917L20.3525 4.60167L19.1311 6.64307Z"
          fill="black"/>
</svg>
